<?xml version="1.0" encoding="iso-8859-1"?>
<!-- Generator: Adobe Illustrator 19.0.0, SVG Export Plug-In . SVG Version: 6.00 Build 0)  -->
<svg version="1.1" id="Layer_1" xmlns="http://www.w3.org/2000/svg" xmlns:xlink="http://www.w3.org/1999/xlink" x="0px" y="0px"
	 viewBox="0 0 512 512" style="enable-background:new 0 0 512 512;" xml:space="preserve">
<path style="fill:#4DB1E0;" d="M135.982,400.024c-69.66,11.137-79.517,73.434-80.51,99.986C55.227,506.565,60.489,512,67.048,512
	h68.935V400.024z"/>
<path style="opacity:0.1;enable-background:new    ;" d="M125.514,402.201C96.738,430.368,78.284,469.03,76.348,512h59.634V400.024
	C132.326,400.608,128.85,401.347,125.514,402.201z"/>
<path style="fill:#4DB1E0;" d="M376.013,400.024c69.66,11.137,79.516,73.434,80.51,99.986c0.245,6.555-5.016,11.99-11.575,11.99
	h-68.935V400.024z"/>
<path style="opacity:0.1;enable-background:new    ;" d="M386.48,402.201c28.776,28.166,47.231,66.829,49.166,109.799h-59.634
	V400.024C379.669,400.608,383.146,401.347,386.48,402.201z"/>
<path style="fill:#4DB1E0;" d="M420.15,512c0-90.659-73.493-164.152-164.152-164.152S91.845,421.341,91.845,512H420.15z"/>
<path style="opacity:0.2;fill:#FFFFFF;enable-background:new    ;" d="M255.997,347.848c-47.618,0-90.493,20.283-120.477,52.673
	c28.12,35.547,71.633,58.359,120.477,58.359s92.357-22.812,120.477-58.359C346.491,368.131,303.616,347.848,255.997,347.848z"/>
<path style="opacity:0.2;enable-background:new    ;" d="M218.621,366.929c-3.821-2.321-8.801-1.102-11.12,2.72l-37.977,62.575
	c4.448,3.038,9.07,5.84,13.837,8.406l37.981-62.581C223.661,374.227,222.443,369.248,218.621,366.929z M255.997,380.182
	c-4.471,0-8.095,3.624-8.095,8.095v70.381c2.682,0.139,5.379,0.221,8.095,0.221s5.413-0.082,8.095-0.221v-70.381
	C264.092,383.807,260.469,380.182,255.997,380.182z M304.493,369.649c-2.32-3.822-7.299-5.04-11.12-2.72
	c-3.822,2.319-5.04,7.298-2.721,11.12l37.981,62.581c4.768-2.565,9.389-5.368,13.837-8.406L304.493,369.649z"/>
<path style="opacity:0.1;enable-background:new    ;" d="M255.997,347.848c-47.565,0-90.396,20.238-120.376,52.563
	c32.933,26.527,74.796,42.415,120.376,42.415s87.442-15.889,120.376-42.415C346.393,368.086,303.563,347.848,255.997,347.848z"/>
<circle style="fill:#F6CDB5;" cx="63.942" cy="220.63" r="44.703"/>
<circle style="opacity:0.15;fill:#EC8087;enable-background:new    ;" cx="63.942" cy="220.63" r="44.703"/>
<path style="opacity:0.07;enable-background:new    ;" d="M63.942,175.932c-3.653,0-7.2,0.448-10.599,1.275
	c-3.226,13.955-4.931,28.493-4.931,43.428c0,14.936,1.706,29.473,4.931,43.428c3.399,0.827,6.946,1.275,10.599,1.275
	c24.689,0,44.703-20.014,44.703-44.703C108.646,195.946,88.632,175.932,63.942,175.932z"/>
<circle style="fill:#F6CDB5;" cx="448.057" cy="220.63" r="44.703"/>
<circle style="opacity:0.15;fill:#EC8087;enable-background:new    ;" cx="448.057" cy="220.63" r="44.703"/>
<path style="opacity:0.07;enable-background:new    ;" d="M448.052,175.932c3.653,0,7.2,0.448,10.599,1.275
	c3.226,13.955,4.931,28.493,4.931,43.428c0,14.936-1.705,29.473-4.931,43.428c-3.399,0.827-6.946,1.275-10.599,1.275
	c-24.689,0-44.703-20.014-44.703-44.703S423.363,175.932,448.052,175.932z"/>
<circle style="fill:#F6CDB5;" cx="255.997" cy="220.63" r="192.06"/>
<g>
	<path style="fill:#EC8087;" d="M155.227,252.461h-31.352c-4.142,0-7.5-3.358-7.5-7.5s3.358-7.5,7.5-7.5h31.352
		c4.142,0,7.5,3.358,7.5,7.5C162.727,249.104,159.368,252.461,155.227,252.461z"/>
	<path style="fill:#EC8087;" d="M388.112,252.461H356.76c-4.142,0-7.5-3.358-7.5-7.5s3.358-7.5,7.5-7.5h31.352
		c4.142,0,7.5,3.358,7.5,7.5C395.612,249.104,392.254,252.461,388.112,252.461z"/>
</g>
<path style="fill:#394049;" d="M255.997,262.336c-10.017,0-19.576-4.825-25.571-12.906c-2.468-3.327-1.772-8.024,1.555-10.492
	c3.328-2.468,8.024-1.771,10.492,1.555c3.226,4.349,8.156,6.843,13.524,6.843c5.369,0,10.298-2.494,13.523-6.843
	c2.469-3.326,7.166-4.022,10.492-1.556c3.327,2.468,4.023,7.165,1.556,10.492C275.573,257.511,266.014,262.336,255.997,262.336z"/>
<g>
	<path style="fill:#8D6A59;" d="M363.428,46.864c-4.142,0-7.5-3.358-7.5-7.5C355.928,17.659,373.587,0,395.293,0
		c4.142,0,7.5,3.358,7.5,7.5s-3.358,7.5-7.5,7.5c-13.434,0-24.364,10.93-24.364,24.364C370.928,43.506,367.57,46.864,363.428,46.864
		z"/>
	<path style="fill:#8D6A59;" d="M312.697,16.782H199.298c-74.828,0-135.488,60.66-135.488,135.488l0,0
		c0,1.076,0.873,1.949,1.949,1.949h380.477c1.077,0,1.949-0.873,1.949-1.949l0,0C448.185,77.442,387.526,16.782,312.697,16.782z"/>
</g>
<path style="opacity:0.1;enable-background:new    ;" d="M435.4,140.16H76.595c-16.971,0-30.728,13.758-30.728,30.728v28.382
	c0,16.971,13.757,30.728,30.728,30.728h358.804c16.971,0,30.728-13.757,30.728-30.728v-28.382
	C466.128,153.918,452.37,140.16,435.4,140.16z"/>
<path style="fill:#394049;" d="M435.4,126.095H76.595c-16.971,0-30.728,13.757-30.728,30.728v28.382
	c0,16.971,13.757,30.728,30.728,30.728h358.804c16.971,0,30.728-13.758,30.728-30.728v-28.382
	C466.128,139.852,452.37,126.095,435.4,126.095z"/>
<path style="fill:#4EBF8C;" d="M73.992,171.014L73.992,171.014c0-9.275,7.519-16.795,16.794-16.795h330.422
	c9.275,0,16.794,7.519,16.794,16.795l0,0c0,9.275-7.519,16.794-16.794,16.794H90.786C81.511,187.809,73.992,180.289,73.992,171.014z
	"/>
<g>
	<polygon style="opacity:0.2;fill:#FFFFFF;enable-background:new    ;" points="197.078,154.219 163.49,187.809 260.404,187.809 
		293.993,154.219 	"/>
	<path style="opacity:0.2;fill:#FFFFFF;enable-background:new    ;" d="M421.208,154.219h-35.038l-33.589,33.589h68.627
		c9.275,0,16.794-7.519,16.794-16.794C438.004,161.739,430.483,154.219,421.208,154.219z"/>
	<path style="opacity:0.3;fill:#FFFFFF;enable-background:new    ;" d="M200.717,512c0-18.696-15.156-33.853-33.853-33.853
		c-18.696,0-33.853,15.156-33.853,33.853H200.717z"/>
</g>
<g style="opacity:0.1;">
	<path d="M143.783,111.046c-4.142,0-7.5-3.358-7.5-7.5c0-9.953,5.389-41.854,22.738-56.587c3.159-2.682,7.89-2.295,10.572,0.862
		c2.681,3.158,2.295,7.891-0.862,10.572c-12.258,10.41-17.448,36.52-17.448,45.154C151.283,107.688,147.924,111.046,143.783,111.046
		z"/>
	<path d="M368.212,98.118c-4.142,0-7.5-3.358-7.5-7.5c0-6.183-4.086-29.119-13.582-37.183c-3.158-2.681-3.543-7.414-0.862-10.571
		c2.682-3.158,7.415-3.543,10.571-0.862c15.592,13.241,18.873,43.256,18.873,48.617C375.712,94.76,372.354,98.118,368.212,98.118z"
		/>
	<path d="M270.332,111.046c-4.142,0-7.5-3.358-7.5-7.5V62.425c0-4.142,3.358-7.5,7.5-7.5s7.5,3.358,7.5,7.5v41.122
		C277.832,107.688,274.474,111.046,270.332,111.046z"/>
</g>
<g>
</g>
<g>
</g>
<g>
</g>
<g>
</g>
<g>
</g>
<g>
</g>
<g>
</g>
<g>
</g>
<g>
</g>
<g>
</g>
<g>
</g>
<g>
</g>
<g>
</g>
<g>
</g>
<g>
</g>
</svg>
