<svg height="512pt" viewBox="0 -32 512 512" width="512pt" xmlns="http://www.w3.org/2000/svg"><path d="m115.1875 7.5h-32.265625c-9.835937 0-17.8125 7.976562-17.8125 17.8125v36.097656h67.890625v-36.097656c0-9.835938-7.976562-17.8125-17.8125-17.8125zm0 0" fill="#334151"/><path d="m396.8125 7.5h32.265625c9.835937 0 17.8125 7.976562 17.8125 17.8125v36.097656h-67.890625v-36.097656c0-9.835938 7.976562-17.8125 17.8125-17.8125zm0 0" fill="#334151"/><path d="m133 41.410156 21.332031 199.890625-21.332031 199.890625h-67.890625c-31.820313 0-57.609375-25.789062-57.609375-57.609375v-284.5625c0-31.808593 25.789062-57.609375 57.609375-57.609375zm0 0" fill="#59c2e7"/><path d="m504.5 99.019531v284.5625c0 31.820313-25.789062 57.609375-57.609375 57.609375h-67.890625l-18.667969-199.890625 18.667969-199.890625h67.890625c31.820313 0 57.609375 25.800782 57.609375 57.609375zm0 0" fill="#ff889e"/><path d="m133 41.410156h246v399.78125h-246zm0 0" fill="#334151"/><path d="m173 81.410156h166v319.78125h-166zm0 0" fill="#a6b6c4"/><path d="m173 81.410156h166v30h-166zm0 0" fill="#7a8fa4"/><g fill="#334151"><path d="m102.449219 225.382812h-12.835938c-2.746093 0-4.96875-2.226562-4.96875-4.96875v-12.835937c0-2.742187-2.222656-4.96875-4.96875-4.96875h-18.851562c-2.746094 0-4.96875 2.226563-4.96875 4.96875v12.835937c0 2.742188-2.222657 4.96875-4.96875 4.96875h-12.835938c-2.742187 0-4.964843 2.222657-4.964843 4.96875v18.851563c0 2.742187 2.222656 4.96875 4.964843 4.96875h12.835938c2.746093 0 4.96875 2.222656 4.96875 4.964844v12.835937c0 2.746094 2.222656 4.96875 4.96875 4.96875h18.851562c2.742188 0 4.96875-2.222656 4.96875-4.96875v-12.835937c0-2.742188 2.222657-4.964844 4.964844-4.964844h12.835937c2.746094 0 4.96875-2.226563 4.96875-4.96875v-18.851563c.003907-2.746093-2.222656-4.96875-4.964843-4.96875zm0 0"/><path d="m84.25 108h-28c-8.175781 0-14.804688 6.628906-14.804688 14.808594 0 8.175781 6.628907 14.804687 14.804688 14.804687h28c8.175781 0 14.804688-6.628906 14.804688-14.804687 0-8.179688-6.628907-14.808594-14.804688-14.808594zm0 0"/><path d="m427.75 108h28c8.175781 0 14.804688 6.628906 14.804688 14.808594 0 8.175781-6.628907 14.804687-14.804688 14.804687h-28c-8.175781 0-14.804688-6.628906-14.804688-14.804687 0-8.179688 6.628907-14.808594 14.804688-14.808594zm0 0"/></g><path d="m199.3125 224.675781v8.898438c0 4.144531 3.359375 7.5 7.5 7.5s7.5-3.355469 7.5-7.5v-8.898438c0-4.144531-3.359375-7.5-7.5-7.5s-7.5 3.355469-7.5 7.5zm0 0"/><path d="m297.6875 224.675781v8.898438c0 4.144531 3.359375 7.5 7.5 7.5s7.5-3.355469 7.5-7.5v-8.898438c0-4.144531-3.359375-7.5-7.5-7.5s-7.5 3.355469-7.5 7.5zm0 0"/><path d="m262.492188 228.019531c-1.558594 1.785157-3.925782 2.808594-6.492188 2.808594s-4.933594-1.023437-6.492188-2.808594c-2.726562-3.117187-7.464843-3.433593-10.582031-.710937-3.121093 2.726562-3.4375 7.464844-.710937 10.585937 4.40625 5.042969 10.890625 7.933594 17.785156 7.933594s13.378906-2.890625 17.785156-7.933594c2.726563-3.121093 2.410156-7.859375-.710937-10.585937-3.117188-2.726563-7.855469-2.40625-10.582031.710937zm0 0"/><path d="m173 408.691406h166c4.140625 0 7.5-3.359375 7.5-7.5v-242.203125c0-4.144531-3.359375-7.5-7.5-7.5s-7.5 3.355469-7.5 7.5v234.703125h-151v-304.78125h151v40.582032c0 4.140624 3.359375 7.5 7.5 7.5s7.5-3.359376 7.5-7.5v-48.082032c0-4.140625-3.359375-7.5-7.5-7.5h-166c-4.140625 0-7.5 3.359375-7.5 7.5v319.78125c0 4.140625 3.359375 7.5 7.5 7.5zm0 0"/><path d="m48.355469 261.671875v10.304687c0 6.875 5.59375 12.464844 12.46875 12.464844h18.851562c6.875 0 12.46875-5.589844 12.46875-12.464844v-10.304687h10.304688c6.875 0 12.46875-5.59375 12.46875-12.46875v-18.851563c0-6.875-5.59375-12.46875-12.46875-12.46875h-10.304688v-10.304687c0-6.875-5.59375-12.46875-12.46875-12.46875h-18.851562c-6.875 0-12.46875 5.59375-12.46875 12.46875v10.304687h-10.304688c-6.875 0-12.46875 5.59375-12.46875 12.46875v18.851563c0 6.875 5.59375 12.46875 12.46875 12.46875zm-7.773438-28.789063h10.304688c6.875 0 12.46875-5.59375 12.46875-12.46875v-10.304687h13.789062v10.304687c0 6.875 5.59375 12.46875 12.46875 12.46875h10.304688v13.789063h-10.304688c-6.875 0-12.46875 5.59375-12.46875 12.46875v10.300781h-13.789062v-10.300781c0-6.875-5.59375-12.46875-12.46875-12.46875h-10.304688zm0 0"/><path d="m455.605469 209.539062c0 7.683594-6.226563 13.914063-13.914063 13.914063-7.683594 0-13.914062-6.230469-13.914062-13.914063 0-7.683593 6.230468-13.914062 13.914062-13.914062 7.6875 0 13.914063 6.230469 13.914063 13.914062zm0 0"/><path d="m424.929688 239.332031c0 7.683594-6.230469 13.914063-13.914063 13.914063-7.6875 0-13.914063-6.230469-13.914063-13.914063 0-7.683593 6.226563-13.914062 13.914063-13.914062 7.683594 0 13.914063 6.230469 13.914063 13.914062zm0 0"/><path d="m454.722656 270.011719c0 7.683593-6.230468 13.914062-13.914062 13.914062-7.6875 0-13.914063-6.230469-13.914063-13.914062 0-7.683594 6.226563-13.914063 13.914063-13.914063 7.683594 0 13.914062 6.230469 13.914062 13.914063zm0 0"/><path d="m485.398438 240.21875c0 7.683594-6.226563 13.914062-13.914063 13.914062-7.683594 0-13.914063-6.230468-13.914063-13.914062s6.230469-13.914062 13.914063-13.914062c7.6875 0 13.914063 6.230468 13.914063 13.914062zm0 0"/><path d="m56.25 145.113281h28c12.300781 0 22.304688-10.007812 22.304688-22.308593 0-12.296876-10.003907-22.304688-22.304688-22.304688h-28c-12.296875 0-22.304688 10.007812-22.304688 22.304688 0 12.300781 10.003907 22.308593 22.304688 22.308593zm0-29.613281h28c4.027344 0 7.304688 3.277344 7.304688 7.308594 0 4.027344-3.277344 7.304687-7.304688 7.304687h-28c-4.027344 0-7.304688-3.277343-7.304688-7.304687 0-4.03125 3.277344-7.308594 7.304688-7.308594zm0 0"/><path d="m405.445312 122.804688c0 12.300781 10.003907 22.308593 22.304688 22.308593h28c12.300781 0 22.304688-10.007812 22.304688-22.308593 0-12.296876-10.003907-22.304688-22.304688-22.304688h-28c-12.300781 0-22.304688 10.007812-22.304688 22.304688zm57.609376 0c0 4.03125-3.277344 7.308593-7.304688 7.308593h-28c-4.027344 0-7.304688-3.277343-7.304688-7.308593 0-4.027344 3.277344-7.304688 7.304688-7.304688h28c4.027344 0 7.304688 3.277344 7.304688 7.304688zm0 0"/><path d="m65.109375 448.691406h381.78125c35.902344 0 65.109375-29.207031 65.109375-65.109375v-284.5625c0-33.363281-25.230469-60.929687-57.609375-64.664062v-9.042969c0-13.957031-11.355469-25.3125-25.3125-25.3125h-32.265625c-13.957031 0-25.3125 11.355469-25.3125 25.3125v8.597656h-231v-8.597656c0-13.957031-11.355469-25.3125-25.3125-25.3125h-32.265625c-13.957031 0-25.3125 11.355469-25.3125 25.3125v9.042969c-32.378906 3.734375-57.609375 31.300781-57.609375 64.664062v284.5625c0 35.902344 29.207031 65.109375 65.109375 65.109375zm431.890625-349.671875v284.5625c0 27.628907-22.480469 50.109375-50.109375 50.109375h-60.390625v-384.78125h60.390625c27.628906 0 50.109375 22.480469 50.109375 50.109375zm-110.5-73.707031c0-5.6875 4.625-10.3125 10.3125-10.3125h32.265625c5.6875 0 10.3125 4.625 10.3125 10.3125v8.597656h-52.890625zm-313.890625 0c0-5.6875 4.625-10.3125 10.3125-10.3125h32.265625c5.6875 0 10.3125 4.625 10.3125 10.3125v8.597656h-52.890625zm-57.609375 73.707031c0-27.628906 22.480469-50.109375 50.109375-50.109375h60.390625v288.3125c0 4.140625 3.359375 7.5 7.5 7.5s7.5-3.359375 7.5-7.5v-288.3125h231v384.78125h-231v-66.546875c0-4.140625-3.359375-7.5-7.5-7.5s-7.5 3.359375-7.5 7.5v66.546875h-60.390625c-27.628906 0-50.109375-22.480468-50.109375-50.109375zm0 0"/></svg>